<svg width="826" height="597" viewBox="0 0 826 597" fill="none" xmlns="http://www.w3.org/2000/svg">
<g opacity="0.7">
<g opacity="0.5">
<path d="M767.909 94.9341H754.792V268.011H767.909M767.909 94.9341H781.026V268.011H767.909M767.909 94.9341V44M767.909 314V268.011" stroke="#FF0000" stroke-width="6"/>
<path d="M809.883 26.9762H796.766V118.643H809.883M809.883 26.9762H823V118.643H809.883M809.883 26.9762V0M809.883 143V118.643" stroke="#008000" stroke-width="6"/>
<path d="M725.935 77.3901H712.818V190.852H725.935M725.935 77.3901H739.052V190.852H725.935M725.935 77.3901V44M725.935 221V190.852" stroke="#008000" stroke-width="6"/>
<path d="M683.961 64.2161H670.844V255.242H683.961M683.961 64.2161H697.078V255.242H683.961M683.961 64.2161V8M683.961 306V255.242" stroke="#008000" stroke-width="6"/>
<path d="M641.987 221.319H628.87V259.78H641.987M641.987 221.319H655.104V259.78H641.987M641.987 221.319V210M641.987 270V259.78" stroke="#FF0000" stroke-width="6"/>
<path d="M600.013 248.846H586.896V302.692H600.013M600.013 248.846H613.13V302.692H600.013M600.013 248.846V233M600.013 317V302.692" stroke="#FF0000" stroke-width="6"/>
<path d="M558.039 299.388H544.922V446.824H558.039M558.039 299.388H571.156V446.824H558.039M558.039 299.388V256M558.039 486V446.824" stroke="#FF0000" stroke-width="6"/>
<path d="M516.065 222.388H502.948V369.824H516.065M516.065 222.388H529.181V369.824H516.065M516.065 222.388V179M516.065 409V369.824" stroke="#008000" stroke-width="6"/>
<path d="M474.091 183.147H460.974V265.198H474.091M474.091 183.147H487.208V265.198H474.091M474.091 183.147V159M474.091 287V265.198" stroke="#008000" stroke-width="6"/>
<path d="M432.117 224.544H419V284.159H432.117M432.117 224.544H445.234V284.159H432.117M432.117 224.544V207M432.117 300V284.159" stroke="#FF0000" stroke-width="6"/>
</g>
<g opacity="0.5">
<path d="M351.909 205.934H338.792V379.011H351.909M351.909 205.934H365.026V379.011H351.909M351.909 205.934V155M351.909 425V379.011" stroke="#FF0000" stroke-width="6"/>
<path d="M393.883 137.976H380.766V229.643H393.883M393.883 137.976H407V229.643H393.883M393.883 137.976V111M393.883 254V229.643" stroke="#008000" stroke-width="6"/>
<path d="M309.935 188.39H296.818V301.852H309.935M309.935 188.39H323.052V301.852H309.935M309.935 188.39V155M309.935 332V301.852" stroke="#008000" stroke-width="6"/>
<path d="M267.961 175.216H254.844V366.242H267.961M267.961 175.216H281.078V366.242H267.961M267.961 175.216V119M267.961 417V366.242" stroke="#008000" stroke-width="6"/>
<path d="M225.987 332.319H212.87V370.78H225.987M225.987 332.319H239.104V370.78H225.987M225.987 332.319V321M225.987 381V370.78" stroke="#FF0000" stroke-width="6"/>
<path d="M184.013 359.846H170.896V413.692H184.013M184.013 359.846H197.13V413.692H184.013M184.013 359.846V344M184.013 428V413.692" stroke="#FF0000" stroke-width="6"/>
<path d="M142.039 410.388H128.922V557.824H142.039M142.039 410.388H155.156V557.824H142.039M142.039 410.388V367M142.039 597V557.824" stroke="#FF0000" stroke-width="6"/>
<path d="M100.065 333.388H86.9476V480.824H100.065M100.065 333.388H113.181V480.824H100.065M100.065 333.388V290M100.065 520V480.824" stroke="#008000" stroke-width="6"/>
<path d="M58.0911 294.147H44.9742V376.198H58.0911M58.0911 294.147H71.208V376.198H58.0911M58.0911 294.147V270M58.0911 398V376.198" stroke="#008000" stroke-width="6"/>
<path d="M16.1168 335.544H2.99987V395.159H16.1168M16.1168 335.544H29.2336V395.159H16.1168M16.1168 335.544V318M16.1168 411V395.159" stroke="#FF0000" stroke-width="6"/>
</g>
</g>
</svg>
